<mxfile host="app.diagrams.net" agent="Mozilla/5.0 (Windows NT 10.0; Win64; x64) AppleWebKit/537.36 (KHTML, like Gecko) Chrome/135.0.0.0 Safari/537.36" version="26.2.15">
  <diagram name="Page-1" id="fPwi8zKU0-xlTZ5cAF9y">
    <mxGraphModel dx="1213" dy="730" grid="1" gridSize="10" guides="1" tooltips="1" connect="1" arrows="1" fold="1" page="1" pageScale="1" pageWidth="827" pageHeight="1169" math="0" shadow="0">
      <root>
        <mxCell id="0" />
        <mxCell id="1" parent="0" />
        <mxCell id="TXJ1jWTlJTYNtMPJWWfL-8" value="" style="rounded=0;whiteSpace=wrap;html=1;dashed=1;dashPattern=8 8;" vertex="1" parent="1">
          <mxGeometry x="90" y="230" width="650" height="115" as="geometry" />
        </mxCell>
        <mxCell id="TXJ1jWTlJTYNtMPJWWfL-1" value="LED对象" style="rounded=1;whiteSpace=wrap;html=1;" vertex="1" parent="1">
          <mxGeometry x="90" y="615" width="650" height="60" as="geometry" />
        </mxCell>
        <mxCell id="TXJ1jWTlJTYNtMPJWWfL-2" value="led_driver_inst" style="rounded=1;whiteSpace=wrap;html=1;" vertex="1" parent="1">
          <mxGeometry x="110" y="265" width="120" height="60" as="geometry" />
        </mxCell>
        <mxCell id="TXJ1jWTlJTYNtMPJWWfL-3" value="led_driver_init" style="rounded=1;whiteSpace=wrap;html=1;" vertex="1" parent="1">
          <mxGeometry x="355" y="265" width="120" height="60" as="geometry" />
        </mxCell>
        <mxCell id="TXJ1jWTlJTYNtMPJWWfL-12" style="rounded=0;orthogonalLoop=1;jettySize=auto;html=1;exitX=0.5;exitY=1;exitDx=0;exitDy=0;entryX=0.5;entryY=0;entryDx=0;entryDy=0;" edge="1" parent="1" source="TXJ1jWTlJTYNtMPJWWfL-4" target="TXJ1jWTlJTYNtMPJWWfL-5">
          <mxGeometry relative="1" as="geometry" />
        </mxCell>
        <mxCell id="TXJ1jWTlJTYNtMPJWWfL-13" style="rounded=0;orthogonalLoop=1;jettySize=auto;html=1;exitX=0.5;exitY=1;exitDx=0;exitDy=0;entryX=0.5;entryY=0;entryDx=0;entryDy=0;" edge="1" parent="1" source="TXJ1jWTlJTYNtMPJWWfL-4" target="TXJ1jWTlJTYNtMPJWWfL-11">
          <mxGeometry relative="1" as="geometry" />
        </mxCell>
        <mxCell id="TXJ1jWTlJTYNtMPJWWfL-4" value="led_driver_ctrl" style="rounded=1;whiteSpace=wrap;html=1;" vertex="1" parent="1">
          <mxGeometry x="590" y="265" width="120" height="60" as="geometry" />
        </mxCell>
        <mxCell id="TXJ1jWTlJTYNtMPJWWfL-5" value="led_driver_twinkle" style="rounded=1;whiteSpace=wrap;html=1;" vertex="1" parent="1">
          <mxGeometry x="531" y="365" width="120" height="60" as="geometry" />
        </mxCell>
        <mxCell id="TXJ1jWTlJTYNtMPJWWfL-9" value="对外接口" style="text;html=1;align=center;verticalAlign=middle;resizable=0;points=[];autosize=1;strokeColor=none;fillColor=none;fontSize=13;fontStyle=1" vertex="1" parent="1">
          <mxGeometry x="90" y="230" width="80" height="30" as="geometry" />
        </mxCell>
        <mxCell id="TXJ1jWTlJTYNtMPJWWfL-10" value="led_driver_on" style="rounded=1;whiteSpace=wrap;html=1;" vertex="1" parent="1">
          <mxGeometry x="661" y="435" width="120" height="60" as="geometry" />
        </mxCell>
        <mxCell id="TXJ1jWTlJTYNtMPJWWfL-11" value="led_driver_off" style="rounded=1;whiteSpace=wrap;html=1;" vertex="1" parent="1">
          <mxGeometry x="661" y="365" width="120" height="60" as="geometry" />
        </mxCell>
        <mxCell id="TXJ1jWTlJTYNtMPJWWfL-14" value="led_driver_on" style="rounded=1;whiteSpace=wrap;html=1;" vertex="1" parent="1">
          <mxGeometry x="109" y="110" width="120" height="60" as="geometry" />
        </mxCell>
        <mxCell id="TXJ1jWTlJTYNtMPJWWfL-15" value="led_driver_off" style="rounded=1;whiteSpace=wrap;html=1;" vertex="1" parent="1">
          <mxGeometry x="109" y="40" width="120" height="60" as="geometry" />
        </mxCell>
      </root>
    </mxGraphModel>
  </diagram>
</mxfile>
